<?xml version="1.0" standalone="no"?>
<svg xmlns:xlink="http://www.w3.org/1999/xlink" id="wave" style="transform:rotate(0deg); transition: 0.3s" viewBox="0 0 1440 490" version="1.1" xmlns="http://www.w3.org/2000/svg"><defs><linearGradient id="sw-gradient-0" x1="0" x2="0" y1="1" y2="0"><stop stop-color="rgba(49.038, 98.022, 255, 1)" offset="0%"/><stop stop-color="rgba(15.811, 253.15, 128.534, 1)" offset="100%"/></linearGradient></defs><path style="transform:translate(0, 0px); opacity:1" fill="url(#sw-gradient-0)" d="M0,0L80,57.2C160,114,320,229,480,253.2C640,278,800,212,960,212.3C1120,212,1280,278,1440,253.2C1600,229,1760,114,1920,81.7C2080,49,2240,98,2400,163.3C2560,229,2720,310,2880,310.3C3040,310,3200,229,3360,179.7C3520,131,3680,114,3840,147C4000,180,4160,261,4320,302.2C4480,343,4640,343,4800,334.8C4960,327,5120,310,5280,253.2C5440,196,5600,98,5760,65.3C5920,33,6080,65,6240,106.2C6400,147,6560,196,6720,187.8C6880,180,7040,114,7200,122.5C7360,131,7520,212,7680,261.3C7840,310,8000,327,8160,326.7C8320,327,8480,310,8640,294C8800,278,8960,261,9120,253.2C9280,245,9440,245,9600,261.3C9760,278,9920,310,10080,277.7C10240,245,10400,147,10560,147C10720,147,10880,245,11040,294C11200,343,11360,343,11440,343L11520,343L11520,490L11440,490C11360,490,11200,490,11040,490C10880,490,10720,490,10560,490C10400,490,10240,490,10080,490C9920,490,9760,490,9600,490C9440,490,9280,490,9120,490C8960,490,8800,490,8640,490C8480,490,8320,490,8160,490C8000,490,7840,490,7680,490C7520,490,7360,490,7200,490C7040,490,6880,490,6720,490C6560,490,6400,490,6240,490C6080,490,5920,490,5760,490C5600,490,5440,490,5280,490C5120,490,4960,490,4800,490C4640,490,4480,490,4320,490C4160,490,4000,490,3840,490C3680,490,3520,490,3360,490C3200,490,3040,490,2880,490C2720,490,2560,490,2400,490C2240,490,2080,490,1920,490C1760,490,1600,490,1440,490C1280,490,1120,490,960,490C800,490,640,490,480,490C320,490,160,490,80,490L0,490Z"/><defs><linearGradient id="sw-gradient-1" x1="0" x2="0" y1="1" y2="0"><stop stop-color="rgba(5.555, 28.304, 139.311, 1)" offset="0%"/><stop stop-color="rgba(11.554, 225.829, 193.166, 1)" offset="100%"/></linearGradient></defs><path style="transform:translate(0, 50px); opacity:0.9" fill="url(#sw-gradient-1)" d="M0,0L80,73.5C160,147,320,294,480,351.2C640,408,800,376,960,310.3C1120,245,1280,147,1440,155.2C1600,163,1760,278,1920,343C2080,408,2240,425,2400,359.3C2560,294,2720,147,2880,147C3040,147,3200,294,3360,359.3C3520,425,3680,408,3840,400.2C4000,392,4160,392,4320,351.2C4480,310,4640,229,4800,179.7C4960,131,5120,114,5280,106.2C5440,98,5600,98,5760,106.2C5920,114,6080,131,6240,147C6400,163,6560,180,6720,220.5C6880,261,7040,327,7200,351.2C7360,376,7520,359,7680,351.2C7840,343,8000,343,8160,310.3C8320,278,8480,212,8640,163.3C8800,114,8960,82,9120,114.3C9280,147,9440,245,9600,245C9760,245,9920,147,10080,138.8C10240,131,10400,212,10560,212.3C10720,212,10880,131,11040,147C11200,163,11360,278,11440,334.8L11520,392L11520,490L11440,490C11360,490,11200,490,11040,490C10880,490,10720,490,10560,490C10400,490,10240,490,10080,490C9920,490,9760,490,9600,490C9440,490,9280,490,9120,490C8960,490,8800,490,8640,490C8480,490,8320,490,8160,490C8000,490,7840,490,7680,490C7520,490,7360,490,7200,490C7040,490,6880,490,6720,490C6560,490,6400,490,6240,490C6080,490,5920,490,5760,490C5600,490,5440,490,5280,490C5120,490,4960,490,4800,490C4640,490,4480,490,4320,490C4160,490,4000,490,3840,490C3680,490,3520,490,3360,490C3200,490,3040,490,2880,490C2720,490,2560,490,2400,490C2240,490,2080,490,1920,490C1760,490,1600,490,1440,490C1280,490,1120,490,960,490C800,490,640,490,480,490C320,490,160,490,80,490L0,490Z"/></svg>